HIERARCHY
ROOT Hips
{
	OFFSET 0.000000 97.167313 0.000000
	CHANNELS 6 Xposition Yposition Zposition Xrotation Yrotation Zrotation
	JOINT Spine
	{
		OFFSET 0.000000 13.784798 0.064400
		CHANNELS 3 Xrotation Yrotation Zrotation
		JOINT Spine1
		{
			OFFSET 0.000000 12.037903 0.404700
			CHANNELS 3 Xrotation Yrotation Zrotation
			JOINT Spine2
			{
				OFFSET 0.000000 17.795601 0.420200
				CHANNELS 3 Xrotation Yrotation Zrotation
				JOINT Neck
				{
					OFFSET 0.000000 39.131302 11.954600
					CHANNELS 3 Xrotation Yrotation Zrotation
					JOINT Head
					{
						OFFSET 0.000000 14.456192 15.627699
						CHANNELS 3 Xrotation Yrotation Zrotation
						JOINT HeadTop_End
						{
							OFFSET 0.000000 15.703506 7.603401
							CHANNELS 3 Xrotation Yrotation Zrotation
							End Site
							{
								OFFSET 0.000000 17.447403 0.000000
							}
						}
					}
				}
				JOINT LeftShoulder
				{
					OFFSET 17.399500 24.608795 1.168800
					CHANNELS 3 Xrotation Yrotation Zrotation
					JOINT LeftArm
					{
						OFFSET 18.980635 5.765305 1.818600
						CHANNELS 3 Xrotation Yrotation Zrotation
						JOINT LeftForeArm
						{
							OFFSET 49.290169 0.000000 0.000000
							CHANNELS 3 Xrotation Yrotation Zrotation
							JOINT LeftHand
							{
								OFFSET 31.562012 0.000000 0.000000
								CHANNELS 3 Xrotation Yrotation Zrotation
								JOINT LeftHandThumb1
								{
									OFFSET 6.133995 -4.388519 7.076070
									CHANNELS 3 Xrotation Yrotation Zrotation
									JOINT LeftHandThumb2
									{
										OFFSET 6.037666 -3.485840 3.485847
										CHANNELS 3 Xrotation Yrotation Zrotation
										JOINT LeftHandThumb3
										{
											OFFSET 6.496506 -3.750763 3.750761
											CHANNELS 3 Xrotation Yrotation Zrotation
											JOINT LeftHandThumb4
											{
												OFFSET 5.616882 -3.242905 3.242910
												CHANNELS 3 Xrotation Yrotation Zrotation
												End Site
												{
													OFFSET -1.254608 7.132141 0.375429
												}
											}
										}
									}
								}
								JOINT LeftHandPinky1
								{
									OFFSET 18.920792 -0.453171 -11.426712
									CHANNELS 3 Xrotation Yrotation Zrotation
									JOINT LeftHandPinky2
									{
										OFFSET 4.919586 0.000000 0.000000
										CHANNELS 3 Xrotation Yrotation Zrotation
										JOINT LeftHandPinky3
										{
											OFFSET 5.233047 0.000000 0.000000
											CHANNELS 3 Xrotation Yrotation Zrotation
											JOINT LeftHandPinky4
											{
												OFFSET 5.571716 0.000000 0.000000
												CHANNELS 3 Xrotation Yrotation Zrotation
												End Site
												{
													OFFSET -3.459808 4.342407 -0.466164
												}
											}
										}
									}
								}
								JOINT LeftHandRing1
								{
									OFFSET 22.726120 -0.094986 -6.500475
									CHANNELS 3 Xrotation Yrotation Zrotation
									JOINT LeftHandRing2
									{
										OFFSET 6.408615 0.000000 0.000000
										CHANNELS 3 Xrotation Yrotation Zrotation
										JOINT LeftHandRing3
										{
											OFFSET 6.150223 0.000000 0.000000
											CHANNELS 3 Xrotation Yrotation Zrotation
											JOINT LeftHandRing4
											{
												OFFSET 6.145386 0.000000 0.000000
												CHANNELS 3 Xrotation Yrotation Zrotation
												End Site
												{
													OFFSET -3.671402 4.923981 -0.202372
												}
											}
										}
									}
								}
								JOINT LeftHandMiddle1
								{
									OFFSET 23.373947 0.000000 0.000001
									CHANNELS 3 Xrotation Yrotation Zrotation
									JOINT LeftHandMiddle2
									{
										OFFSET 6.996567 0.000000 0.000000
										CHANNELS 3 Xrotation Yrotation Zrotation
										JOINT LeftHandMiddle3
										{
											OFFSET 7.015945 0.000000 0.000000
											CHANNELS 3 Xrotation Yrotation Zrotation
											JOINT LeftHandMiddle4
											{
												OFFSET 7.721573 0.000000 0.000000
												CHANNELS 3 Xrotation Yrotation Zrotation
												End Site
												{
													OFFSET -4.651108 6.158463 0.251582
												}
											}
										}
									}
								}
								JOINT LeftHandIndex1
								{
									OFFSET 21.310577 -0.490082 6.209344
									CHANNELS 3 Xrotation Yrotation Zrotation
									JOINT LeftHandIndex2
									{
										OFFSET 7.536453 0.000000 0.000000
										CHANNELS 3 Xrotation Yrotation Zrotation
										JOINT LeftHandIndex3
										{
											OFFSET 7.512344 0.000000 0.000000
											CHANNELS 3 Xrotation Yrotation Zrotation
											JOINT LeftHandIndex4
											{
												OFFSET 10.212402 0.000000 0.000001
												CHANNELS 3 Xrotation Yrotation Zrotation
												End Site
												{
													OFFSET -5.180801 8.690506 1.388433
												}
											}
										}
									}
								}
							}
						}
					}
				}
				JOINT RightShoulder
				{
					OFFSET -17.399500 24.608795 1.168800
					CHANNELS 3 Xrotation Yrotation Zrotation
					JOINT RightArm
					{
						OFFSET -18.980635 5.765305 1.818600
						CHANNELS 3 Xrotation Yrotation Zrotation
						JOINT RightForeArm
						{
							OFFSET -49.290169 0.000000 0.000000
							CHANNELS 3 Xrotation Yrotation Zrotation
							JOINT RightHand
							{
								OFFSET -31.562012 0.000000 0.000000
								CHANNELS 3 Xrotation Yrotation Zrotation
								JOINT RightHandThumb1
								{
									OFFSET -6.133995 -4.388519 7.076070
									CHANNELS 3 Xrotation Yrotation Zrotation
									JOINT RightHandThumb2
									{
										OFFSET -6.037666 -3.485840 3.485847
										CHANNELS 3 Xrotation Yrotation Zrotation
										JOINT RightHandThumb3
										{
											OFFSET -6.496506 -3.750763 3.750761
											CHANNELS 3 Xrotation Yrotation Zrotation
											JOINT RightHandThumb4
											{
												OFFSET -5.616882 -3.242905 3.242910
												CHANNELS 3 Xrotation Yrotation Zrotation
												End Site
												{
													OFFSET 1.254608 7.132141 0.375429
												}
											}
										}
									}
								}
								JOINT RightHandIndex1
								{
									OFFSET -21.310577 -0.490082 6.209344
									CHANNELS 3 Xrotation Yrotation Zrotation
									JOINT RightHandIndex2
									{
										OFFSET -7.536453 0.000000 0.000000
										CHANNELS 3 Xrotation Yrotation Zrotation
										JOINT RightHandIndex3
										{
											OFFSET -7.512344 0.000000 0.000000
											CHANNELS 3 Xrotation Yrotation Zrotation
											JOINT RightHandIndex4
											{
												OFFSET -10.212402 0.000000 0.000001
												CHANNELS 3 Xrotation Yrotation Zrotation
												End Site
												{
													OFFSET 5.180801 8.690506 1.388433
												}
											}
										}
									}
								}
								JOINT RightHandMiddle1
								{
									OFFSET -23.373947 0.000000 0.000001
									CHANNELS 3 Xrotation Yrotation Zrotation
									JOINT RightHandMiddle2
									{
										OFFSET -6.996567 0.000000 0.000000
										CHANNELS 3 Xrotation Yrotation Zrotation
										JOINT RightHandMiddle3
										{
											OFFSET -7.015945 0.000000 0.000000
											CHANNELS 3 Xrotation Yrotation Zrotation
											JOINT RightHandMiddle4
											{
												OFFSET -7.721573 0.000000 0.000000
												CHANNELS 3 Xrotation Yrotation Zrotation
												End Site
												{
													OFFSET 4.651108 6.158463 0.251582
												}
											}
										}
									}
								}
								JOINT RightHandRing1
								{
									OFFSET -22.726120 -0.094986 -6.500475
									CHANNELS 3 Xrotation Yrotation Zrotation
									JOINT RightHandRing2
									{
										OFFSET -6.408615 0.000000 0.000000
										CHANNELS 3 Xrotation Yrotation Zrotation
										JOINT RightHandRing3
										{
											OFFSET -6.150223 0.000000 0.000000
											CHANNELS 3 Xrotation Yrotation Zrotation
											JOINT RightHandRing4
											{
												OFFSET -6.145386 0.000000 0.000000
												CHANNELS 3 Xrotation Yrotation Zrotation
												End Site
												{
													OFFSET 3.671402 4.923981 -0.202372
												}
											}
										}
									}
								}
								JOINT RightHandPinky1
								{
									OFFSET -18.920792 -0.453171 -11.426712
									CHANNELS 3 Xrotation Yrotation Zrotation
									JOINT RightHandPinky2
									{
										OFFSET -4.919586 0.000000 0.000000
										CHANNELS 3 Xrotation Yrotation Zrotation
										JOINT RightHandPinky3
										{
											OFFSET -5.233047 0.000000 0.000000
											CHANNELS 3 Xrotation Yrotation Zrotation
											JOINT RightHandPinky4
											{
												OFFSET -5.571716 0.000000 0.000000
												CHANNELS 3 Xrotation Yrotation Zrotation
												End Site
												{
													OFFSET 3.459808 4.342407 -0.466164
												}
											}
										}
									}
								}
							}
						}
					}
				}
			}
		}
	}
	JOINT LeftUpLeg
	{
		OFFSET 19.899099 -7.885101 -3.429500
		CHANNELS 3 Xrotation Yrotation Zrotation
		JOINT LeftLeg
		{
			OFFSET 1.745560 -36.997807 10.304700
			CHANNELS 3 Xrotation Yrotation Zrotation
			JOINT LeftFoot
			{
				OFFSET -1.745558 -29.803308 -13.615400
				CHANNELS 3 Xrotation Yrotation Zrotation
				JOINT LeftToeBase
				{
					OFFSET 1.181900 -18.539904 15.226099
					CHANNELS 3 Xrotation Yrotation Zrotation
					JOINT LeftToe_End
					{
						OFFSET -0.863701 1.402801 16.534700
						CHANNELS 3 Xrotation Yrotation Zrotation
						End Site
						{
							OFFSET 0.000000 16.616566 0.000000
						}
					}
				}
			}
		}
	}
	JOINT RightUpLeg
	{
		OFFSET -19.899099 -7.885101 -3.429500
		CHANNELS 3 Xrotation Yrotation Zrotation
		JOINT RightLeg
		{
			OFFSET -1.745560 -36.997807 10.304700
			CHANNELS 3 Xrotation Yrotation Zrotation
			JOINT RightFoot
			{
				OFFSET 1.745558 -29.803308 -13.615400
				CHANNELS 3 Xrotation Yrotation Zrotation
				JOINT RightToeBase
				{
					OFFSET -1.181900 -18.539904 15.226099
					CHANNELS 3 Xrotation Yrotation Zrotation
					JOINT RightToe_End
					{
						OFFSET 0.863701 1.402801 16.534700
						CHANNELS 3 Xrotation Yrotation Zrotation
						End Site
						{
							OFFSET 0.000000 16.616566 0.000000
						}
					}
				}
			}
		}
	}
}
MOTION
Frames: 4
Frame Time: 0.033333
-0.286722 66.337135 7.415493 33.212922 -25.672822 10.425815 2.967144 0.341047 -0.005097 5.917108 1.870014 0.943769 5.917103 1.869964 0.943792 7.243423 9.925271 -20.402414 -39.316362 3.566215 6.027449 0.000001 0.000000 -0.000000 23.827412 -7.919532 16.502143 -97.252133 -3.114054 -24.013302 17.118911 -61.296713 17.101202 -64.663860 -11.320505 11.363624 17.551611 -5.699215 -12.932296 10.850468 26.127731 8.644795 20.926931 51.115886 0.218751 0.000003 0.000003 0.000001 10.030111 13.637011 -84.750237 0.870586 0.065059 -64.595640 1.141223 1.253160 -55.016385 -0.000000 0.000001 -0.000004 8.574276 2.179123 -75.148986 -0.210347 1.014473 -57.854899 0.443976 1.741111 -53.581246 -0.000000 0.000000 0.000003 7.504745 1.174409 -63.778510 1.808040 1.479496 -64.567984 0.143028 -0.902100 -43.272004 0.000001 -0.000002 0.000004 13.980943 1.201499 -55.004398 0.376174 1.161052 -65.441955 1.984183 2.149299 -57.665095 -0.000000 0.000001 -0.000001 25.091590 23.565628 14.093709 -14.184549 -5.645234 34.028491 -20.646750 28.798670 9.322503 0.086904 4.280059 -1.780016 -7.690591 -3.227326 2.833689 3.859123 -21.286143 -10.402469 -2.759003 2.595156 -2.045352 0.000000 -0.000002 0.000001 6.989955 -14.685100 29.983267 1.997416 -4.780571 36.571674 1.953108 -7.947253 34.087739 0.000001 -0.000003 -0.000001 4.076373 -10.985358 49.155526 2.118081 -6.566190 33.397832 2.403724 -5.448548 39.600846 -0.000001 -0.000001 -0.000004 4.073678 -17.753472 50.554093 3.282037 -6.588353 44.357373 4.424099 -8.844782 52.197757 -0.000000 0.000003 -0.000003 3.733007 -26.647058 66.636937 9.232508 -8.720477 82.486815 8.407929 -10.132590 81.662370 0.000000 -0.000001 0.000000 -95.340295 -1.449808 32.147416 75.012013 5.849801 -3.849356 -12.337173 -6.017643 -2.244325 -0.000104 0.000115 0.000278 0.000001 0.000000 -0.000000 -70.826145 -1.438991 5.578440 71.030791 -9.067850 1.009859 -29.427365 -3.851847 3.196966 -0.003717 0.115302 0.002670 0.000000 0.000000 -0.000000 
-0.075229 66.492470 3.241566 33.507614 -25.268801 10.258557 3.007735 0.492789 0.421921 5.852998 1.689158 0.880895 5.855705 1.692731 0.904769 6.340901 9.750997 -19.739023 -38.931037 3.411033 6.073954 -0.000000 0.000000 -0.000000 23.564274 -7.718838 17.004842 -97.280233 -3.107963 -24.399121 17.172007 -61.208945 17.282931 -64.666223 -11.412828 11.295427 17.557602 -5.681458 -12.934043 10.835585 26.087281 8.642877 20.939108 51.136998 0.213847 0.000002 0.000001 -0.000004 10.154998 13.545278 -85.281817 0.877504 0.057310 -64.933447 1.157623 1.240867 -55.649701 -0.000000 0.000001 -0.000004 8.576268 2.161025 -75.269334 -0.210152 1.015130 -57.882616 0.445324 1.742089 -53.669902 -0.000002 -0.000001 0.000005 7.369038 1.228428 -63.644563 1.801336 1.482939 -64.320411 0.140178 -0.907690 -42.928804 0.000001 -0.000002 0.000008 13.920949 1.771670 -54.850398 0.371407 1.156864 -65.124863 1.972991 2.154702 -57.313743 -0.000003 0.000003 0.000001 24.290092 23.198381 15.192192 -13.579410 -7.324115 33.659083 -19.738046 27.892556 8.958300 0.017118 5.564099 -3.585052 -7.546640 -3.505050 2.766649 3.979639 -21.768040 -10.473902 -2.576915 2.133853 -2.166138 0.000004 -0.000001 -0.000000 6.988851 -14.684048 29.622127 1.995337 -4.779785 36.210340 1.954634 -7.948693 33.875737 -0.000001 0.000000 -0.000001 4.076161 -10.983079 48.940689 2.118783 -6.565357 33.184317 2.401749 -5.448915 39.385108 0.000003 0.000000 -0.000001 4.070380 -17.752669 50.192741 3.281332 -6.587309 43.996633 4.423111 -8.844044 51.836945 -0.000001 -0.000003 -0.000002 3.732388 -26.646883 65.698763 9.232060 -8.719779 81.547794 8.407013 -10.132433 80.577176 0.000003 0.000001 0.000002 -90.755503 1.534402 31.834760 82.265312 3.099688 -4.315065 -10.385611 -6.828465 -0.183017 -0.940335 0.059540 0.126501 0.000000 -0.000000 0.000000 -75.257449 -3.210982 6.890502 69.023378 -10.625952 0.697547 -23.658013 -2.720731 1.301264 -0.003735 0.115324 0.002670 0.000000 0.000000 0.000000 
0.375535 66.089340 -0.954800 33.737856 -24.979117 9.804096 3.024720 0.755644 1.144338 5.816569 1.509184 0.804150 5.823460 1.515056 0.851791 5.525734 9.610543 -19.009152 -38.589780 3.336692 6.033762 -0.000000 0.000000 -0.000000 23.442567 -7.640319 17.771719 -97.469101 -2.958315 -24.536017 17.052865 -60.702316 17.170197 -64.665308 -11.555873 11.236497 17.551315 -5.700044 -12.932226 10.835776 26.087814 8.642899 20.983132 51.213301 0.196107 0.000001 0.000003 -0.000003 10.045914 13.625509 -84.817351 0.876823 0.066368 -64.324352 1.174761 1.227659 -56.310870 -0.000000 0.000002 -0.000002 8.577968 2.145712 -75.371301 -0.210558 1.013890 -57.828971 0.446653 1.743105 -53.759575 0.000000 -0.000000 0.000005 7.304962 1.189177 -64.104945 1.810749 1.478108 -64.667323 0.132479 -0.905788 -43.100140 0.000001 -0.000001 0.000008 14.053935 2.861457 -55.578554 0.377699 1.162383 -65.543281 1.985608 2.148599 -57.710201 0.000002 0.000005 -0.000001 23.440403 22.767075 16.440482 -12.976817 -9.243956 33.262331 -18.771694 26.917970 8.592455 0.033013 6.996117 -5.549667 -7.390266 -3.808125 2.694466 4.138472 -22.413618 -10.568277 -2.336453 1.514753 -2.324819 0.000002 0.000000 0.000001 6.985717 -14.683761 28.305752 1.988290 -4.779578 34.895037 1.953684 -7.954496 32.792104 -0.000002 -0.000002 -0.000006 4.075934 -10.982668 47.856888 2.118171 -6.560957 32.100318 2.397113 -5.447948 38.302345 -0.000000 0.000001 -0.000004 4.069770 -17.752268 48.877069 3.279195 -6.586929 42.680756 4.422378 -8.843370 50.521714 0.000002 0.000001 -0.000001 3.730722 -26.646525 62.848908 9.230628 -8.715554 78.698471 8.405446 -10.131932 77.496303 -0.000000 -0.000001 0.000000 -86.123781 3.923726 30.130218 87.153938 -1.945795 -4.054067 -5.083625 -7.120321 -0.528459 -21.102023 2.313169 -1.033370 0.000001 0.000000 0.000000 -79.693145 -5.115258 8.097638 67.089287 -11.724190 0.423785 -17.892376 -2.113157 -0.844597 -0.003724 0.115311 0.002665 -0.000000 0.000000 0.000000 
0.961954 65.190292 -5.257412 33.602891 -24.666747 8.771474 2.973824 0.803230 2.428955 5.888895 1.433051 0.680522 5.903178 1.433435 0.736193 5.106918 9.588039 -18.035369 -38.455755 3.575766 5.621708 -0.000000 0.000000 0.000000 23.292422 -7.961581 18.384195 -97.425934 -2.816390 -24.288426 17.521542 -60.751965 17.581604 -64.664119 -11.709009 11.174822 17.549510 -5.705409 -12.931681 10.834651 26.084793 8.642751 20.999396 51.241418 0.189518 0.000002 -0.000003 -0.000001 9.910147 13.723413 -84.243061 0.876255 0.073449 -63.847611 1.168411 1.222626 -56.051036 -0.000001 0.000001 -0.000000 8.572383 2.196141 -75.035693 -0.213262 1.005787 -57.479355 0.443765 1.740930 -53.566189 -0.000000 0.000001 0.000003 7.253247 1.202958 -64.106291 1.809153 1.474107 -64.617865 0.134659 -0.911735 -43.000228 -0.000001 -0.000001 0.000004 14.110656 3.317749 -55.888050 0.380138 1.159786 -65.721945 1.991534 2.140755 -57.875260 -0.000000 0.000005 0.000000 22.580117 22.286863 17.765966 -12.380805 -11.305298 32.874558 -17.784293 25.901530 8.246233 0.156230 8.512318 -7.606986 -7.223942 -4.132057 2.618487 4.316987 -23.148250 -10.674249 -2.065921 0.811807 -2.501864 0.000005 0.000002 -0.000000 6.982287 -14.683191 26.368000 1.983705 -4.778991 32.958675 1.952858 -7.957711 31.138153 -0.000003 -0.000001 -0.000002 4.075399 -10.982227 46.203259 2.117405 -6.553029 30.445944 2.396358 -5.446960 36.648941 -0.000001 0.000000 -0.000008 4.069395 -17.751633 46.939830 3.277437 -6.586098 40.744954 4.422135 -8.842959 48.585721 0.000001 -0.000000 0.000000 3.729192 -26.645362 58.764960 9.228929 -8.714902 74.616238 8.404151 -10.131374 73.130152 -0.000003 -0.000001 -0.000001 -79.385813 6.338585 28.418537 91.435046 -3.699793 -3.635124 -2.080105 -6.727755 -1.659372 -37.288783 2.488120 2.124160 -0.000000 0.000000 -0.000000 -83.865195 -7.074787 9.237305 65.158092 -12.963689 0.132760 -12.095200 -1.873269 -2.862815 -0.003726 0.115307 0.002675 -0.000000 -0.000002 0.000000 
